<svg width="45" height="45" viewBox="0 0 45 45" fill="none" xmlns="http://www.w3.org/2000/svg">
<path d="M2.8125 17.0625C2.8125 12.0745 2.8125 9.58054 3.78322 7.6754C4.6371 5.99958 5.99958 4.6371 7.6754 3.78322C9.58054 2.8125 12.0745 2.8125 17.0625 2.8125H27.9375C32.9255 2.8125 35.4195 2.8125 37.3245 3.78322C39.0004 4.6371 40.3629 5.99958 41.2168 7.6754C42.1875 9.58054 42.1875 12.0745 42.1875 17.0625V27.9375C42.1875 32.9255 42.1875 35.4195 41.2168 37.3245C40.3629 39.0004 39.0004 40.3629 37.3245 41.2168C35.4195 42.1875 32.9255 42.1875 27.9375 42.1875H17.0625C12.0745 42.1875 9.58054 42.1875 7.6754 41.2168C5.99958 40.3629 4.6371 39.0004 3.78322 37.3245C2.8125 35.4195 2.8125 32.9255 2.8125 27.9375V17.0625Z" fill="#470137"/>
<path d="M23.4091 14.3912L18.4961 22.7083L23.7524 31.54C23.8617 31.7402 23.7524 31.7845 23.5941 31.7845H19.8433C19.5791 31.7845 19.3942 31.775 19.2885 31.5943C18.936 30.8899 18.5839 30.19 18.2319 29.4946C17.8795 28.7995 17.5053 28.0906 17.1094 27.3679C16.7131 26.6458 16.3214 25.9144 15.9339 25.1736C15.5815 25.8962 15.1896 26.6185 14.8113 27.3409C14.4325 28.0635 14.0583 28.7814 13.6887 29.4946C13.319 30.2083 12.9404 30.9172 12.553 31.6213C12.4824 31.7838 12.3589 31.8006 12.1831 31.8006H8.56443C8.42224 31.8006 8.40509 31.6937 8.4852 31.5671L13.5831 22.9792L8.61722 14.3641C8.52702 14.2412 8.60465 14.1102 8.74932 14.1202H12.4737C12.6349 14.1112 12.7774 14.172 12.8699 14.3099C13.1869 15.0325 13.539 15.755 13.9264 16.4772C14.3135 17.1998 14.7054 17.9133 15.1019 18.6174C15.4981 19.3218 15.8899 20.0352 16.2245 20.7577C16.5765 20.0173 16.9331 19.2949 17.2942 18.5904C17.6551 17.886 18.0248 17.1771 18.4036 16.4637C18.7822 15.7505 19.1475 15.0416 19.4998 14.3371C19.5466 14.1825 19.6585 14.1042 19.8167 14.1202H23.277C23.4091 14.1202 23.4637 14.3006 23.4091 14.3912Z" fill="#FF61F6"/>
<path d="M30.9897 32.1363C28.6602 32.1728 26.2202 31.2135 24.9937 29.0886C24.3949 28.0683 24.0955 26.7906 24.0957 25.2551C24.0857 24.0117 24.3955 22.7876 24.9937 21.7062C26.5373 18.9468 29.6471 17.913 32.601 18.1844V12.8473C32.601 12.7211 32.6538 12.6577 32.7594 12.6577H36.0876C36.1786 12.6443 36.259 12.7269 36.2461 12.8202V28.8312C36.2461 29.4917 36.3116 30.15 36.3518 30.8088C36.3583 30.9213 36.2932 31.0327 36.1932 31.0798C34.5489 31.7832 32.7696 32.1282 30.9897 32.1363ZM32.601 28.7769V21.381C30.1884 20.7108 27.8461 22.5484 27.8464 25.0926C27.7892 27.723 30.0566 29.5403 32.601 28.7769Z" fill="#FF61F6"/>
</svg>
