<svg width="30" height="30" viewBox="0 0 25 25" fill="none" xmlns="http://www.w3.org/2000/svg">
<g clip-path="url(#clip0_42_78)">
<path d="M12.5 25C2.41855 25 0 22.5814 0 12.5C0 2.41855 2.41855 0 12.5 0C22.5814 0 25 2.41855 25 12.5C25 22.5814 22.5814 25 12.5 25ZM8.96133 6.18633L5.04072 15.0968C4.8625 15.5296 4.70977 16.0896 4.70977 16.5733C4.70977 18.7882 6.26269 20.3412 8.47754 20.3412C9.20342 20.3412 9.80615 20.1505 10.4189 19.9566L10.4194 19.9563C11.0531 19.7559 11.6977 19.552 12.5 19.552C13.3117 19.552 13.9408 19.7541 14.5623 19.9537L14.5625 19.9538C15.1689 20.1486 15.7681 20.3412 16.5224 20.3412C18.7372 20.3412 20.2902 18.7882 20.2902 16.5733C20.2902 16.0896 20.1374 15.5296 19.9593 15.0968L16.0388 6.18633C15.3767 4.68437 14.1039 3.86963 12.5 3.86963C10.8961 3.86963 9.62324 4.68428 8.96133 6.18633ZM8.63027 16.497L12.5 7.73936L16.3188 16.497C15.224 15.9624 13.8493 15.7078 12.5 15.7078C11.0998 15.7078 9.77588 15.9624 8.63027 16.497Z" fill="#5A46FF"/>
</g>
<defs>
<clipPath id="clip0_42_78">
<rect width="25" height="25" fill="white"/>
</clipPath>
</defs>
</svg>
