<svg width="45" height="45" viewBox="0 0 45 45" fill="none" xmlns="http://www.w3.org/2000/svg">
<path d="M34.7119 12.7575L35.1337 12.1191L35.8706 12.5662L36.1969 12.7997C36.9844 13.4072 38.6409 14.9597 38.9981 17.5359C39.6253 17.4234 40.2581 17.3672 40.8909 17.3672C42.3928 17.3672 43.4025 17.7159 43.9762 18.0056L44.2716 18.1659L44.4628 18.2925L45 18.7312L44.8144 19.2937C44.5259 20.0649 44.0751 20.7651 43.4925 21.3469C42.6769 22.1878 41.2425 23.1806 38.9672 23.31L38.4666 23.3241H38.0503C37.0097 26.0719 35.6119 29.1684 33.2634 31.9472C31.87 33.5984 30.2171 35.0119 28.3697 36.1322C26.1548 37.4462 23.7294 38.3673 21.2006 38.8547C19.3894 39.2062 17.55 39.3806 15.7078 39.375C11.6297 39.375 8.02969 38.565 5.81625 37.1475C3.83906 35.8847 2.32031 33.8231 1.29937 31.0247C0.405915 28.4676 -0.032899 25.7738 0.0028099 23.0653C-0.00181763 22.7181 0.118237 22.3806 0.341174 22.1144C0.564111 21.8481 0.875149 21.6706 1.21781 21.6141L1.40906 21.6H31.0528L31.3116 21.5803L31.7306 21.5353C32.4506 21.4397 33.5475 21.2259 34.3181 20.7759C33.3956 19.2487 33.1341 17.4628 33.5644 15.5616C33.7446 14.7685 34.0283 14.0026 34.4081 13.2834L34.7119 12.7575ZM8.12812 16.2675L8.24062 16.2872C8.29201 16.3064 8.33827 16.3372 8.37583 16.3772C8.41339 16.4172 8.44122 16.4653 8.45718 16.5178L8.47406 16.6303V20.3287L8.45718 20.4441C8.44094 20.4968 8.41267 20.5451 8.37461 20.5852C8.33654 20.6252 8.28972 20.6558 8.23781 20.6747L8.12812 20.6916H4.15687C4.08286 20.6906 4.01108 20.6661 3.95192 20.6216C3.89276 20.5771 3.84929 20.5149 3.82781 20.4441L3.80812 20.3316V16.6275L3.82781 16.515C3.84368 16.4617 3.87177 16.4128 3.90986 16.3723C3.94795 16.3318 3.99497 16.3007 4.04719 16.2816L4.15687 16.2647L8.12812 16.2675ZM13.6041 16.2675L13.7137 16.2872C13.7657 16.3061 13.8125 16.3367 13.8505 16.3767C13.8886 16.4167 13.9169 16.465 13.9331 16.5178L13.95 16.6303V20.3287L13.9303 20.4441C13.9141 20.4968 13.8858 20.5451 13.8477 20.5852C13.8097 20.6252 13.7628 20.6558 13.7109 20.6747L13.6012 20.6916H9.63C9.55609 20.6901 9.48452 20.6655 9.42544 20.621C9.36637 20.5766 9.3228 20.5147 9.30093 20.4441L9.28125 20.3344V16.6303C9.28065 16.5551 9.30329 16.4814 9.34607 16.4195C9.38886 16.3576 9.4497 16.3104 9.52031 16.2844L9.63 16.2647L13.6041 16.2675ZM19.1616 16.2675L19.2712 16.2872C19.3226 16.3064 19.3689 16.3372 19.4065 16.3772C19.444 16.4172 19.4718 16.4653 19.4878 16.5178L19.5075 16.6303V20.3287L19.4878 20.4441C19.4716 20.4968 19.4433 20.5451 19.4052 20.5852C19.3672 20.6252 19.3203 20.6558 19.2684 20.6747L19.1587 20.6916H15.1875C15.1135 20.6906 15.0417 20.6661 14.9825 20.6216C14.9234 20.5771 14.8799 20.5149 14.8584 20.4441L14.8416 20.3316V16.6275L14.8584 16.515C14.8743 16.4617 14.9024 16.4128 14.9405 16.3723C14.9786 16.3318 15.0256 16.3007 15.0778 16.2816L15.1875 16.2647L19.1616 16.2675ZM24.6516 16.2675L24.7612 16.2872C24.8132 16.3061 24.86 16.3367 24.898 16.3767C24.9361 16.4167 24.9644 16.465 24.9806 16.5178L25.0003 16.6303V20.3287C25.0009 20.404 24.9783 20.4776 24.9355 20.5395C24.8927 20.6014 24.8319 20.6486 24.7612 20.6747L24.6487 20.6916H20.6803C20.6063 20.6906 20.5345 20.6661 20.4754 20.6216C20.4162 20.5771 20.3727 20.5149 20.3512 20.4441L20.3344 20.3316V16.6275L20.3512 16.515C20.3671 16.4617 20.3952 16.4128 20.4333 16.3723C20.4714 16.3318 20.5184 16.3007 20.5706 16.2816L20.6831 16.2647H24.6544L24.6516 16.2675ZM30.1922 16.2675L30.3019 16.2872C30.3538 16.3061 30.4006 16.3367 30.4387 16.3767C30.4767 16.4167 30.505 16.465 30.5212 16.5178L30.5381 16.6303V20.3287C30.5387 20.404 30.5161 20.4776 30.4733 20.5395C30.4305 20.6014 30.3697 20.6486 30.2991 20.6747L30.1894 20.6916H26.2181C26.1441 20.6906 26.0723 20.6661 26.0132 20.6216C25.954 20.5771 25.9105 20.5149 25.8891 20.4441L25.8722 20.3316V16.6275L25.8891 16.515C25.9049 16.4617 25.933 16.4128 25.9711 16.3723C26.0092 16.3318 26.0562 16.3007 26.1084 16.2816L26.2209 16.2647H30.1894L30.1922 16.2675ZM13.5984 10.9462L13.7109 10.9659C13.762 10.9849 13.8081 11.0153 13.8456 11.0547C13.8832 11.0942 13.9112 11.1418 13.9275 11.1937L13.9472 11.3091V15.0075C13.9478 15.0828 13.9251 15.1564 13.8824 15.2183C13.8396 15.2802 13.7787 15.3274 13.7081 15.3534L13.5984 15.3731H9.63C9.55538 15.3713 9.48327 15.3458 9.42411 15.3003C9.36495 15.2548 9.32181 15.1917 9.30093 15.12L9.28125 15.0075V11.3091C9.28123 11.2343 9.30413 11.1613 9.34688 11.0999C9.38963 11.0386 9.45016 10.9918 9.52031 10.9659L9.63 10.9462H13.5984ZM19.1559 10.9462L19.2684 10.9659C19.3195 10.9849 19.3656 11.0153 19.4031 11.0547C19.4407 11.0942 19.4687 11.1418 19.485 11.1937L19.5047 11.3091V15.0075C19.5053 15.0828 19.4826 15.1564 19.4399 15.2183C19.3971 15.2802 19.3362 15.3274 19.2656 15.3534L19.1559 15.3731H15.1875C15.1129 15.3713 15.0408 15.3458 14.9816 15.3003C14.9225 15.2548 14.8793 15.1917 14.8584 15.12L14.8416 15.0075V11.3091L14.8584 11.1966C14.8747 11.1438 14.9029 11.0955 14.941 11.0555C14.9791 11.0154 15.0259 10.9848 15.0778 10.9659L15.1875 10.9462H19.1559ZM24.6487 10.9462C24.8006 10.9462 24.93 11.0503 24.9778 11.1937L24.9975 11.3091V15.0075C24.9981 15.0828 24.9755 15.1564 24.9327 15.2183C24.8899 15.2802 24.829 15.3274 24.7584 15.3534L24.6459 15.3731H20.6803C20.6057 15.3713 20.5336 15.3458 20.4744 15.3003C20.4153 15.2548 20.3721 15.1917 20.3512 15.12L20.3344 15.0075V11.3091L20.3512 11.1966C20.3675 11.1438 20.3958 11.0955 20.4338 11.0555C20.4719 11.0154 20.5187 10.9848 20.5706 10.9659L20.6831 10.9462H24.6544H24.6487ZM24.6487 5.625C24.8006 5.625 24.93 5.72906 24.9778 5.8725L24.9975 5.985V9.68625C24.9981 9.76151 24.9755 9.83511 24.9327 9.89702C24.8899 9.95894 24.829 10.0061 24.7584 10.0322L24.6459 10.0491H20.6803C20.6063 10.0481 20.5345 10.0236 20.4754 9.97906C20.4162 9.93456 20.3727 9.8724 20.3512 9.80156L20.3344 9.68906V5.985L20.3512 5.8725C20.3675 5.81972 20.3958 5.77142 20.4338 5.7314C20.4719 5.69138 20.5187 5.66074 20.5706 5.64188L20.6803 5.625H24.6516H24.6487Z" fill="#2396ED"/>
</svg>
