<svg width="45" height="45" viewBox="0 0 45 45" fill="none" xmlns="http://www.w3.org/2000/svg">
<g clip-path="url(#clip0_119_302)">
<path d="M45 34.8525C44.3451 35.1002 43.6221 35.0996 42.9676 34.8509C42.313 34.6022 41.7721 34.1226 41.4469 33.5025L34.9781 24.5569L34.0406 23.3062L26.535 33.5137C26.2294 34.1078 25.7178 34.5703 25.0959 34.8146C24.4741 35.0589 23.7846 35.0684 23.1563 34.8412L32.8275 21.8662L23.8313 10.1456C24.4781 9.9125 25.1856 9.90941 25.8344 10.1369C26.4833 10.3643 27.034 10.8084 27.3938 11.3944L34.0988 20.4506L40.8413 11.4319C41.1493 10.8483 41.661 10.3983 42.2791 10.1674C42.8972 9.93649 43.5786 9.94074 44.1938 10.1794L40.7025 14.8125L35.9738 20.9681C35.8424 21.0852 35.7374 21.2288 35.6654 21.3894C35.5935 21.55 35.5563 21.724 35.5563 21.9C35.5563 22.076 35.5935 22.2499 35.6654 22.4105C35.7374 22.5711 35.8424 22.7147 35.9738 22.8319L44.9813 34.8544L45 34.8525ZM0.00375723 21.705L0.791257 17.8144C2.95501 10.1212 11.775 6.92061 17.8425 11.6831C21.3956 14.475 22.2825 18.4275 22.1081 22.8825H2.09251C1.76813 30.8381 7.50938 35.6419 14.85 33.1875C16.04 32.7591 17.1051 32.0423 17.9501 31.1012C18.795 30.1601 19.3932 29.0241 19.6913 27.795C20.0794 26.5462 20.7188 26.3325 21.8925 26.6925C21.6969 28.2157 21.1585 29.6747 20.3176 30.9598C19.4768 32.2449 18.3555 33.3226 17.0381 34.1119C14.862 35.3022 12.3653 35.7739 9.90493 35.4597C7.44455 35.1455 5.14651 34.0615 3.33938 32.3625C1.55256 30.3513 0.47265 27.8109 0.264382 25.1287C0.264382 24.6881 0.114382 24.2756 0.0131322 23.88C0.00400479 23.1556 -0.000370303 22.4313 7.23423e-06 21.7069L0.00375723 21.705ZM2.11688 21.1687H20.2181C20.1056 15.4012 16.4663 11.31 11.6119 11.2725C6.20813 11.1975 2.34188 15.1987 2.10376 21.1425L2.11688 21.1687Z" fill="black"/>
</g>
<defs>
<clipPath id="clip0_119_302">
<rect width="45" height="45" fill="white"/>
</clipPath>
</defs>
</svg>
