<svg width="45" height="45" viewBox="0 0 45 45" fill="none" xmlns="http://www.w3.org/2000/svg">
<path fill-rule="evenodd" clip-rule="evenodd" d="M22.5 22.5C22.5 19.3935 25.0185 16.875 28.125 16.875C31.2315 16.875 33.75 19.3935 33.75 22.5C33.75 25.6065 31.2315 28.125 28.125 28.125C25.0185 28.125 22.5 25.6065 22.5 22.5Z" fill="#1ABCFE"/>
<path fill-rule="evenodd" clip-rule="evenodd" d="M11.25 33.75C11.25 30.6435 13.7684 28.125 16.875 28.125H22.5V33.75C22.5 36.8565 19.9815 39.375 16.875 39.375C13.7684 39.375 11.25 36.8565 11.25 33.75Z" fill="#0ACF83"/>
<path fill-rule="evenodd" clip-rule="evenodd" d="M22.5 5.625V16.875H28.125C31.2315 16.875 33.75 14.3565 33.75 11.25C33.75 8.1434 31.2315 5.625 28.125 5.625H22.5Z" fill="#FF7262"/>
<path fill-rule="evenodd" clip-rule="evenodd" d="M11.25 11.25C11.25 14.3565 13.7684 16.875 16.875 16.875H22.5V5.625H16.875C13.7684 5.625 11.25 8.1434 11.25 11.25Z" fill="#F24E1E"/>
<path fill-rule="evenodd" clip-rule="evenodd" d="M11.25 22.5C11.25 25.6065 13.7684 28.125 16.875 28.125H22.5V16.875H16.875C13.7684 16.875 11.25 19.3935 11.25 22.5Z" fill="#A259FF"/>
</svg>
