<svg width="30" height="30" viewBox="0 0 25 25" fill="none" xmlns="http://www.w3.org/2000/svg">
<path d="M4.53125 19.2188L4.66406 19.0337L10.9297 7.14772L10.943 7.02193L8.18125 1.83444C8.13069 1.73957 8.05158 1.66301 7.95512 1.61558C7.85865 1.56815 7.74972 1.55225 7.64372 1.57013C7.53773 1.58801 7.44003 1.63877 7.36447 1.71522C7.28891 1.79168 7.2393 1.88996 7.22266 1.99615L4.53125 19.2188Z" fill="#FFC24A"/>
<path d="M4.60938 19.0781L4.70937 18.8828L10.9102 7.12033L8.15547 1.91252C8.11004 1.82195 8.03649 1.74854 7.94584 1.70329C7.85518 1.65803 7.75231 1.64337 7.65262 1.66149C7.55293 1.67962 7.4618 1.72956 7.39288 1.80382C7.32395 1.87809 7.28095 1.9727 7.27031 2.07346L4.60938 19.0781Z" fill="#FFA712"/>
<path d="M12.9563 10.9454L15.0125 8.83604L12.9555 4.91338C12.9102 4.82896 12.8429 4.7584 12.7607 4.7092C12.6785 4.66001 12.5845 4.63403 12.4887 4.63403C12.3929 4.63403 12.2989 4.66001 12.2167 4.7092C12.1345 4.7584 12.0672 4.82896 12.0219 4.91338L10.9227 7.00869V7.1876L12.9563 10.9454Z" fill="#F4BD62"/>
<path d="M12.9195 10.8594L14.9187 8.81252L12.9195 5.00002C12.8868 4.91749 12.8309 4.8462 12.7586 4.79472C12.6863 4.74325 12.6006 4.71379 12.5119 4.70991C12.4232 4.70603 12.3353 4.72789 12.2587 4.77285C12.1822 4.81781 12.1203 4.88395 12.0805 4.9633L10.9758 7.09533L10.943 7.20392L12.9195 10.8594Z" fill="#FFA50E"/>
<path d="M4.53281 19.2196L4.59296 19.1587L4.81093 19.0704L12.8266 11.0844L12.9281 10.8079L10.9289 6.99695L4.53281 19.2196Z" fill="#F6820C"/>
<path d="M13.2125 23.2469L20.4688 19.2008L18.3953 6.44219C18.3804 6.35225 18.3411 6.26814 18.2816 6.1991C18.222 6.13007 18.1446 6.07877 18.0579 6.05084C17.9711 6.02291 17.8783 6.01943 17.7897 6.04078C17.701 6.06213 17.62 6.10749 17.5555 6.17188L4.53125 19.2188L11.7445 23.2461C11.9688 23.3712 12.2213 23.4369 12.4781 23.4369C12.7349 23.4369 12.9875 23.3712 13.2117 23.2461" fill="#FDE068"/>
<path d="M20.4023 19.1672L18.3461 6.5047C18.3425 6.41867 18.3134 6.33566 18.2626 6.26616C18.2117 6.19666 18.1414 6.1438 18.0605 6.11428C17.9797 6.08475 17.8918 6.07988 17.8082 6.10029C17.7245 6.1207 17.6488 6.16546 17.5906 6.22892L4.60938 19.1945L11.743 23.1789C11.9654 23.303 12.216 23.3682 12.4707 23.3682C12.7255 23.3682 12.976 23.303 13.1984 23.1789L20.4023 19.1672Z" fill="#FCCA3F"/>
<path d="M13.2125 23.125C12.9882 23.2502 12.7357 23.3159 12.4789 23.3159C12.2221 23.3159 11.9696 23.2502 11.7453 23.125L4.59062 19.1578L4.53125 19.2188L11.7445 23.2461C11.9688 23.3713 12.2213 23.4369 12.4781 23.4369C12.7349 23.4369 12.9875 23.3713 13.2117 23.2461L20.4688 19.2008L20.4508 19.0914L13.2125 23.125Z" fill="#EEAB37"/>
</svg>
