<svg width="40" height="40" viewBox="0 0 40 40" fill="none" xmlns="http://www.w3.org/2000/svg">
<path d="M0.823163 21.6748C-0.274387 20.5772 -0.274387 18.7978 0.823163 17.7002L17.7002 0.823163C18.7978 -0.274387 20.5772 -0.274387 21.6748 0.823163L38.5518 17.7002C39.6494 18.7978 39.6494 20.5772 38.5518 21.6748L21.6748 38.5518C20.5772 39.6494 18.7978 39.6494 17.7002 38.5518L0.823163 21.6748Z" fill="#EE513B"/>
<path d="M14.2719 4.30518L12.5629 6.01425L16.977 10.4283C16.7984 10.8114 16.6987 11.2387 16.6987 11.6892C16.6987 12.9684 17.5023 14.0597 18.6323 14.486V25.284C17.5023 25.7102 16.6987 26.8016 16.6987 28.0808C16.6987 29.7311 18.0366 31.069 19.6869 31.069C21.3373 31.069 22.6752 29.7311 22.6752 28.0808C22.6752 26.9212 22.0147 25.9157 21.0493 25.4204V14.5007L25.2688 18.7202C25.0989 19.0955 25.0044 19.5122 25.0044 19.9509C25.0044 21.6013 26.3423 22.9392 27.9927 22.9392C29.6431 22.9392 30.981 21.6013 30.981 19.9509C30.981 18.3006 29.6431 16.9627 27.9927 16.9627C27.6719 16.9627 27.3631 17.0131 27.0734 17.1067L22.5418 12.575C22.6285 12.2952 22.6752 11.9976 22.6752 11.6892C22.6752 10.0388 21.3373 8.70092 19.6869 8.70092C19.3786 8.70092 19.0811 8.74765 18.8011 8.8344L14.2719 4.30518Z" fill="white"/>
</svg>
