<svg width="30" height="30" viewBox="0 0 25 25" fill="none" xmlns="http://www.w3.org/2000/svg">
<path fill-rule="evenodd" clip-rule="evenodd" d="M14.6333 2.86141L19.7675 5.82573C19.9121 5.6726 20.081 5.53739 20.2725 5.42612C21.3374 4.814 22.6955 5.17745 23.314 6.24227C23.9261 7.30709 23.5626 8.66521 22.4978 9.2837C22.3077 9.39298 22.1081 9.47117 21.9048 9.51982V15.4508C22.1059 15.4995 22.3033 15.5772 22.4914 15.6854C23.5626 16.3039 23.9261 17.662 23.3076 18.7268C22.6955 19.7916 21.331 20.1551 20.2662 19.5429C20.0542 19.4211 19.87 19.2694 19.7157 19.0962L14.6129 22.0424C14.6858 22.2629 14.7253 22.4986 14.7253 22.7438C14.7253 23.968 13.7306 24.9691 12.5 24.9691C11.2694 24.9691 10.2747 23.9744 10.2747 22.7438C10.2747 22.525 10.3061 22.3138 10.3647 22.1142L5.2319 19.1506C5.08887 19.3008 4.92234 19.4335 4.73383 19.5429C3.66263 20.1551 2.30451 19.7916 1.6924 18.7268C1.08028 17.662 1.44372 16.3039 2.50854 15.6854C2.69681 15.5771 2.89425 15.4994 3.09515 15.4507V9.51982C2.89193 9.47117 2.69227 9.39298 2.50217 9.2837C1.43735 8.67159 1.07391 7.30709 1.68602 6.24227C2.29813 5.17745 3.66263 4.814 4.72745 5.42612C4.91798 5.53678 5.08605 5.67113 5.2301 5.82324L10.3657 2.85811C10.3065 2.65759 10.2747 2.4452 10.2747 2.22528C10.2747 0.994682 11.2694 0 12.5 0C13.7306 0 14.7253 0.994682 14.7253 2.22528C14.7253 2.44641 14.6932 2.65992 14.6333 2.86141ZM14.0984 3.77473L19.2448 6.74611C19.0858 7.30483 19.1441 7.92435 19.4564 8.46755C19.7697 9.01251 20.28 9.37376 20.8464 9.51455V15.4529C20.8175 15.46 20.7888 15.4677 20.7603 15.4759L14.0387 3.83408C14.0589 3.81467 14.0789 3.79489 14.0984 3.77473ZM10.9628 3.83543L4.24126 15.4771C4.2122 15.4686 4.18297 15.4608 4.1536 15.4535V9.51455C4.71998 9.37376 5.23033 9.01251 5.5436 8.46755C5.85647 7.92328 5.91447 7.30238 5.75421 6.7428L10.8992 3.77225C10.92 3.79373 10.9411 3.8148 10.9628 3.83543ZM13.1218 4.36283L19.8417 16.0018C19.6913 16.1452 19.5588 16.3123 19.45 16.5015C19.3419 16.6896 19.2642 16.8871 19.2154 17.0881H5.78468C5.73593 16.8872 5.6582 16.6898 5.54998 16.5015C5.44077 16.3135 5.3085 16.1473 5.15885 16.0046L11.8801 4.36337C12.0768 4.42015 12.2848 4.45056 12.5 4.45056C12.7159 4.45056 12.9245 4.41995 13.1218 4.36283ZM14.1457 21.2446L19.2587 18.2925C19.2433 18.2444 19.2296 18.1957 19.2176 18.1466H5.78183C5.77471 18.1754 5.76701 18.2041 5.75874 18.2327L10.8969 21.1992C11.3014 20.7794 11.8698 20.5185 12.5 20.5185C13.1526 20.5185 13.7389 20.7983 14.1457 21.2446Z" fill="#E535AB"/>
</svg>
