<svg width="30" height="30" viewBox="0 0 25 25" fill="none" xmlns="http://www.w3.org/2000/svg">
<g clip-path="url(#clip0_42_258)">
<path d="M12.5148 0.000115781C14.5438 0.000115781 16.4544 0.474166 18.2464 1.39241L18.4834 1.5109L18.2761 1.67381C17.7725 2.07369 17.3726 2.59206 17.1209 3.18447L17.0468 3.34739L16.8987 3.27334C15.5213 2.62168 14.0551 2.28104 12.5296 2.28104C6.88685 2.28104 2.31043 6.87227 2.31043 12.5002C2.31043 18.1282 6.87204 22.7194 12.5148 22.7194C18.1576 22.7194 22.734 18.1282 22.734 12.5002C22.734 11.1525 22.4822 9.83436 21.9491 8.59028L21.875 8.42737L22.0379 8.35331C22.6451 8.13116 23.1783 7.7609 23.6078 7.28696L23.7707 7.07962L23.8744 7.31658C24.6297 8.96054 25 10.7082 25 12.4706C25 19.3575 19.3868 24.9706 12.5 24.9706C5.61315 24.9706 0 19.3575 0 12.4706C0 5.58376 5.61315 -0.0293884 12.5148 0.000115781ZM12.5148 6.81303C15.6398 6.81303 18.202 9.36042 18.2168 12.515C18.2168 15.6697 15.6694 18.2171 12.5148 18.2171C9.36019 18.2171 6.8128 15.6697 6.8128 12.515C6.8128 9.36042 9.375 6.81303 12.5148 6.81303ZM20.6754 2.10331C22.115 2.10331 23.282 3.27034 23.282 4.70995C23.282 6.14955 22.115 7.31658 20.6754 7.31658C19.2358 7.31658 18.0687 6.14955 18.0687 4.70995C18.0687 3.27034 19.2358 2.10331 20.6754 2.10331Z" fill="#3880FF"/>
</g>
<defs>
<clipPath id="clip0_42_258">
<rect width="25" height="25" fill="white"/>
</clipPath>
</defs>
</svg>
