<svg width="45" height="45" viewBox="0 0 45 45" fill="none" xmlns="http://www.w3.org/2000/svg">
<g clip-path="url(#clip0_117_274)">
<path d="M0 0H45V45H0V0Z" fill="#F7DF1E"/>
<path d="M11.8321 37.6054L15.2759 35.5213C15.9402 36.6992 16.5446 37.6959 17.9942 37.6959C19.3838 37.6959 20.2599 37.1523 20.2599 35.038V20.6594H24.4887V35.0978C24.4887 39.4778 21.9213 41.4714 18.1755 41.4714C14.7926 41.4714 12.8289 39.7194 11.8321 37.605" fill="black"/>
<path d="M26.7857 37.1521L30.229 35.1584C31.1354 36.6387 32.3135 37.7261 34.3976 37.7261C36.1498 37.7261 37.2672 36.85 37.2672 35.6417C37.2672 34.1918 36.1194 33.6782 34.1861 32.8327L33.1292 32.3793C30.0781 31.0806 28.0542 29.4495 28.0542 26.0058C28.0542 22.8341 30.4707 20.4175 34.2467 20.4175C36.9351 20.4175 38.8683 21.354 40.2577 23.8008L36.9651 25.9151C36.2401 24.6163 35.455 24.1029 34.2468 24.1029C33.0083 24.1029 32.2228 24.8883 32.2228 25.9151C32.2228 27.1838 33.0083 27.6975 34.8205 28.4829L35.8776 28.936C39.4723 30.4766 41.4962 32.0472 41.4962 35.5813C41.4962 39.3876 38.5058 41.4716 34.4884 41.4716C30.5615 41.4716 28.024 39.5989 26.7857 37.1521Z" fill="black"/>
</g>
<defs>
<clipPath id="clip0_117_274">
<rect width="45" height="45" fill="white"/>
</clipPath>
</defs>
</svg>
