<svg width="30" height="30" viewBox="0 0 30 30" fill="none" xmlns="http://www.w3.org/2000/svg">
<g clip-path="url(#clip0_124_37)">
<path d="M27.1437 0.754012C22.7604 0.741712 6.5931 0.762412 2.8563 0.754012C1.6935 0.754012 0.75 1.66871 0.75 2.79521V27.2095C0.75 28.3363 1.6935 29.2501 2.8563 29.2501H27.1437C28.3071 29.2501 29.25 28.3363 29.25 27.2092V2.79521C29.25 1.66871 28.3071 0.754012 27.1437 0.754012Z" fill="#0077B5"/>
<path d="M16.0359 24.6018V17.4381C15.9942 16.1217 16.7811 14.8932 18.3645 14.838C19.9074 14.838 20.5248 16.0143 20.5248 17.739V24.6015H24.789V17.2458C24.789 13.3053 22.6854 11.4717 19.8795 11.4717C17.5791 11.4717 16.5687 12.7572 16.0074 13.6329L16.0359 11.7729H11.7717C11.8272 12.9765 11.7714 24.6018 11.7714 24.6018H16.0359Z" fill="#F1F1F1"/>
<path d="M9.41099 19.0385V11.7725H5.14619V24.6014H9.41129C9.41039 23.2544 9.41279 20.3666 9.41099 19.0385Z" fill="#F1F1F1"/>
<path d="M7.2795 10.0214C8.7663 10.0214 9.6921 9.03622 9.6921 7.80532C9.6798 4.83622 4.8909 4.86922 4.8948 7.80502C4.8915 9.04553 5.8428 10.0367 7.2795 10.0214Z" fill="#F1F1F1"/>
</g>
<defs>
<clipPath id="clip0_124_37">
<rect width="30" height="30" fill="white"/>
</clipPath>
</defs>
</svg>
