<svg width="30" height="30" viewBox="0 0 30 30" fill="none" xmlns="http://www.w3.org/2000/svg">
<path d="M15 24.7448L9.375 16.3073C8.67188 15 7.5 13.1395 7.5 11.25C7.5 7.10812 10.8581 3.75 15 3.75C19.1419 3.75 22.5 7.10812 22.5 11.25C22.5 13.1395 21.5367 15 20.625 16.3073L15 24.7448Z" fill="#F76D57"/>
<path d="M15 0C8.78719 0 3.75 5.03719 3.75 11.25C3.75 13.6964 4.55203 15.9413 5.88516 17.7797C5.90906 17.8238 5.91281 17.873 5.94 17.9152L13.44 29.1652C13.7878 29.6869 14.3738 30 15 30C15.6262 30 16.2122 29.6869 16.56 29.1652L24.06 17.9152C24.0877 17.873 24.0909 17.8238 24.1148 17.7797C25.448 15.9413 26.25 13.6964 26.25 11.25C26.25 5.03719 21.2128 0 15 0ZM20.625 16.3073L15 24.7448L9.375 16.3073C8.67188 15 7.5 13.1395 7.5 11.25C7.5 7.10812 10.8581 3.75 15 3.75C19.1419 3.75 22.5 7.10812 22.5 11.25C22.5 13.1395 21.5367 15 20.625 16.3073Z" fill="white"/>
<path d="M15 15C17.0711 15 18.75 13.3211 18.75 11.25C18.75 9.17893 17.0711 7.5 15 7.5C12.9289 7.5 11.25 9.17893 11.25 11.25C11.25 13.3211 12.9289 15 15 15Z" fill="white"/>
</svg>
