<svg width="30" height="30" viewBox="0 0 30 30" fill="none" xmlns="http://www.w3.org/2000/svg">
<g clip-path="url(#clip0_124_12)">
<path d="M30 6.19547V23.8042C30 25.4281 28.6891 26.739 27.0652 26.739H2.93479C1.31086 26.739 0 25.4281 0 23.8042V6.19547C0 6.14332 0 6.09111 0.00650391 6.03896C0.0847852 4.53896 1.27822 3.34547 2.77822 3.26725C2.83037 3.26074 2.88258 3.26074 2.93473 3.26074H27.0652C27.1173 3.26074 27.176 3.26074 27.2282 3.26725C28.7217 3.34553 29.9152 4.53896 29.9934 6.03246C30 6.08461 30 6.14332 30 6.19547Z" fill="#E6F3FF"/>
<path d="M27.2283 3.26725C27.176 3.26074 27.1175 3.26074 27.0652 3.26074H15V26.739H27.0652C28.6891 26.739 30 25.4282 30 23.8042V6.19553C30 6.14338 30 6.08467 29.9935 6.03246C29.9152 4.53902 28.7217 3.34553 27.2283 3.26725Z" fill="#CFDBE6"/>
<path d="M29.9935 6.03261C29.9152 4.53911 28.7218 3.34567 27.2283 3.26739C22.435 8.06065 19.7432 10.7525 15 15.4956C13.2006 13.6952 4.54746 5.03657 2.77828 3.26733C1.27828 3.34562 0.0847852 4.53905 0.0065625 6.03905C0 6.09126 0 6.14347 0 6.19562V23.8043C0 25.4283 1.31086 26.7391 2.93479 26.7391H3.91307V9.94562L13.6174 19.6435C13.9957 20.0283 14.4979 20.2174 15.0001 20.2174C15.5022 20.2174 16.0044 20.0283 16.3827 19.6435L26.0871 9.93911V26.7391H27.0653C28.6893 26.7391 30.0001 25.4283 30.0001 23.8043V6.19562C30 6.14347 30 6.08476 29.9935 6.03261Z" fill="#FF4B26"/>
<path d="M16.3826 19.6435L26.0869 9.93911V26.7391H27.0652C28.6891 26.7391 30 25.4283 30 23.8043V6.19562C30 6.14347 30 6.08476 29.9935 6.03255C29.9152 4.53905 28.7218 3.34562 27.2283 3.26733C22.435 8.06065 19.7432 10.7525 15 15.4956V20.2173C15.5021 20.2173 16.0044 20.0283 16.3826 19.6435Z" fill="#D93F21"/>
</g>
<defs>
<clipPath id="clip0_124_12">
<rect width="30" height="30" fill="white"/>
</clipPath>
</defs>
</svg>
