<svg width="45" height="45" viewBox="0 0 45 45" fill="none" xmlns="http://www.w3.org/2000/svg">
<path d="M44.0126 7.55938C43.3171 7.5816 43.537 7.78199 42.0343 8.1518C40.5168 8.52525 38.6631 8.41073 37.029 9.09606C32.1509 11.1419 31.1722 18.1341 26.7375 20.6388C23.4227 22.5112 20.0784 22.6605 17.0717 23.6027C15.0957 24.2223 12.9342 25.493 11.1439 27.0358C9.75427 28.2337 9.71799 29.287 8.26604 30.7895C6.71299 32.3966 2.09358 30.8167 0 33.2764C0.674421 33.9583 0.970093 34.1493 2.29916 33.9724C2.024 34.4939 0.401948 34.9334 0.719466 35.7007C1.05356 36.5079 4.975 37.0552 8.53975 34.903C10.1999 33.9007 11.5222 32.456 14.1078 32.1112C17.4536 31.6652 21.308 32.3972 25.1813 32.9557C24.607 34.6682 23.4539 35.807 22.5302 37.1709C22.2442 37.4789 23.1047 37.5135 24.0865 37.3273C25.8525 36.8906 27.1252 36.539 28.458 35.7632C30.0954 34.81 30.3435 32.3662 32.3525 31.8374C33.4719 33.5579 36.5163 33.9643 38.4054 32.5882C36.7478 32.119 36.2896 28.5906 36.8492 27.0358C37.3792 25.5641 37.9029 23.2099 38.4367 21.2644C39.0098 19.1751 39.2212 16.5417 39.9147 15.4774C40.9582 13.8762 42.1111 13.3263 43.1121 12.4234C44.1131 11.5205 45.0293 10.6416 44.9993 8.57556C44.9896 7.91009 44.6455 7.53915 44.0126 7.55938Z" fill="#002B64"/>
<path d="M42.5225 8.78345C42.6891 9.35159 42.9499 9.61233 44.0772 9.71662C43.9125 11.1458 42.9591 11.9276 41.8902 12.6776C40.9495 13.3373 39.919 13.9726 39.2568 15.0031C38.5784 16.0587 38.1477 19.6717 37.0958 23.2397C36.1866 26.3227 34.8135 29.371 32.4157 30.7066C32.1652 30.0761 32.4476 28.9124 31.9494 28.5299C31.627 29.4493 31.2624 30.3266 30.8355 31.142C29.4285 33.8313 27.3453 35.8448 23.8641 36.4596C25.5159 34.2245 27.0953 31.9163 27.1295 28.0638C25.967 28.3153 25.9917 31.0612 24.7973 31.7953C24.0316 31.8786 23.2558 31.8781 22.4751 31.8312C19.2689 31.6391 15.9798 30.6754 12.9804 31.6378C10.9381 32.2933 9.2679 33.8395 7.53853 34.5895C5.506 35.4711 3.96675 35.8336 1.4357 35.4711C1.11433 35.0382 3.28808 34.4795 3.15808 33.5396C2.16752 33.4301 1.59239 33.6701 0.731323 33.2789C0.826388 33.1037 0.966115 32.9577 1.14202 32.8362C2.72019 31.7439 7.20293 32.5782 8.40259 31.4003C9.14314 30.6737 9.62894 29.9132 10.132 29.1739C10.6198 28.4565 11.124 27.7591 11.8923 27.1306C12.176 26.8986 12.4844 26.6693 12.8117 26.4455C14.1209 25.5495 15.7405 24.7368 17.3344 24.1766C19.5057 23.4134 21.7059 23.3505 24.0201 22.4662C25.4498 21.9198 27.0045 21.2449 28.2718 20.3005C28.5727 20.0759 28.8574 19.8366 29.1206 19.5801C32.7393 16.0525 33.4567 9.8299 39.1024 9.25004C39.785 9.17992 40.344 9.20263 40.8527 9.18716C41.4391 9.16969 41.9581 9.10158 42.5225 8.78345ZM35.6399 28.6993C35.7072 29.7777 36.3333 31.9173 36.8859 32.4372C35.8035 32.7005 33.9389 32.2656 33.4606 31.5021C33.7064 30.3997 34.9854 29.3919 35.6399 28.6993Z" fill="#C49A6C"/>
<path d="M42.9291 9.99096C42.7115 10.4474 42.2949 11.0358 42.2949 12.1977C42.2931 12.3972 42.1434 12.5338 42.1409 12.2263C42.1521 11.0908 42.4527 10.5999 42.772 9.95469C42.9204 9.69034 43.0098 9.7994 42.9291 9.99096ZM42.7099 9.81906C42.4533 10.2545 41.8352 11.0489 41.733 12.2064C41.7141 12.4048 41.5527 12.5277 41.5772 12.2209C41.6886 11.091 42.1825 10.3838 42.5575 9.769C42.7276 9.51896 42.8075 9.63542 42.7099 9.81906ZM42.5102 9.59124C42.2178 10.0035 41.2664 10.9574 41.0674 12.1024C41.0316 12.2983 40.8605 12.4077 40.9108 12.104C41.1167 10.9871 41.9368 10.1092 42.3621 9.52866C42.5526 9.29343 42.6223 9.41628 42.5102 9.59124ZM42.3319 9.3371L42.2357 9.43944C41.8103 9.89552 40.8221 11.0079 40.4927 12.0261C40.4294 12.2151 40.2447 12.2994 40.3374 12.0056C40.6981 10.9288 41.6914 9.769 42.194 9.2541C42.416 9.04798 42.4676 9.17952 42.3319 9.3371ZM37.2255 11.6424C37.4459 10.6956 38.1823 10.2642 39.4535 10.3695C39.7602 11.7827 38.0436 12.3527 37.2255 11.6424Z" fill="#002B64"/>
</svg>
