<svg width="30" height="30" viewBox="0 0 25 25" fill="none" xmlns="http://www.w3.org/2000/svg">
<path d="M11.4809 0.317317C12.0981 -0.0359635 12.902 -0.0375592 13.5186 0.317317C16.621 2.07033 19.7244 3.8206 22.8263 5.57468C23.4097 5.90331 23.7999 6.5526 23.794 7.22485V17.7717C23.7983 18.4717 23.3695 19.1366 22.754 19.4577C19.6618 21.2011 16.5712 22.9466 13.4795 24.6899C12.8496 25.0501 12.0295 25.0224 11.4192 24.6327C10.4922 24.0952 9.56357 23.5605 8.63645 23.0236C8.447 22.9107 8.23343 22.8208 8.09966 22.6371C8.21792 22.4777 8.42936 22.4578 8.60116 22.3882C8.98813 22.2652 9.34354 22.0677 9.69904 21.876C9.78893 21.8145 9.89868 21.8381 9.98485 21.8931C10.7776 22.3476 11.5633 22.8154 12.3587 23.2655C12.5284 23.3635 12.7002 23.2334 12.8452 23.1526C15.8796 21.4376 18.9177 19.7291 21.9516 18.0136C22.064 17.9595 22.1262 17.8402 22.117 17.7171C22.1192 14.2379 22.1176 10.7581 22.1181 7.27893C22.131 7.13921 22.0501 7.01076 21.9238 6.95358C18.8423 5.2182 15.7624 3.48017 12.6815 1.74436C12.6281 1.70766 12.5649 1.68797 12.5001 1.68787C12.4353 1.68778 12.372 1.70728 12.3185 1.74382C9.2376 3.48017 6.15826 5.2198 3.07732 6.95508C2.95143 7.01235 2.86694 7.13868 2.88193 7.27893C2.88246 10.7581 2.88193 14.2379 2.88193 17.7176C2.87658 17.7777 2.88978 17.8379 2.91974 17.8903C2.94969 17.9426 2.99497 17.9846 3.04948 18.0104C3.87164 18.4766 4.69487 18.9396 5.51756 19.4042C5.98104 19.6537 6.5501 19.8019 7.06074 19.6108C7.51136 19.4491 7.82723 18.9893 7.81863 18.5108C7.82288 15.052 7.8165 11.5926 7.82182 8.13425C7.81056 7.9807 7.95622 7.85384 8.10551 7.86829C8.50054 7.86563 8.89611 7.86297 9.29115 7.86936C9.45604 7.86563 9.56951 8.03097 9.54912 8.18567C9.54753 11.6664 9.55338 15.1473 9.54646 18.628C9.54753 19.5557 9.16641 20.5651 8.30834 21.019C7.25125 21.5666 5.94469 21.4505 4.90037 20.9254C3.99629 20.4741 3.13352 19.9416 2.24549 19.4582C1.62838 19.1388 1.2017 18.4713 1.20604 17.7717V7.22485C1.19957 6.53868 1.60533 5.8776 2.20693 5.55375C5.29859 3.80898 8.38973 2.06288 11.4809 0.317317Z" fill="#8CC84B"/>
<path d="M14.178 7.62312C15.5264 7.53633 16.97 7.5717 18.1834 8.23598C19.1228 8.74502 19.6436 9.81337 19.6602 10.8571C19.634 10.9979 19.4868 11.0755 19.3524 11.0659C18.9612 11.0653 18.5699 11.0712 18.1787 11.0632C18.0127 11.0696 17.9162 10.9166 17.8954 10.7698C17.783 10.2705 17.5107 9.77587 17.0406 9.535C16.3191 9.17374 15.4825 9.19192 14.6957 9.19945C14.1213 9.22995 13.5037 9.27968 13.017 9.61745C12.6435 9.8733 12.53 10.3898 12.6633 10.8057C12.789 11.1044 13.1338 11.2008 13.4159 11.2896C15.0409 11.7146 16.7629 11.6723 18.3568 12.2316C19.0168 12.4596 19.6623 12.9029 19.8882 13.5939C20.1837 14.5199 20.0542 15.6268 19.3953 16.3703C18.861 16.9821 18.0828 17.3151 17.3067 17.4959C16.2741 17.7261 15.2026 17.732 14.154 17.6298C13.168 17.5174 12.1419 17.2583 11.3808 16.5865C10.7299 16.0213 10.412 15.1408 10.4435 14.2909C10.4511 14.1473 10.594 14.0472 10.7315 14.059C11.1255 14.0558 11.5194 14.0548 11.9134 14.0596C12.0708 14.0483 12.1874 14.1843 12.1955 14.3326C12.2682 14.8084 12.447 15.3078 12.8619 15.5899C13.6626 16.1065 14.6673 16.0711 15.5841 16.0855C16.3437 16.0518 17.1964 16.0417 17.8162 15.5396C18.1433 15.2533 18.2402 14.7742 18.1518 14.362C18.056 14.0141 17.692 13.8519 17.3794 13.7459C15.7753 13.2385 14.0341 13.4226 12.4454 12.8487C11.8005 12.6208 11.1768 12.1899 10.929 11.5273C10.5833 10.5895 10.7417 9.42959 11.4696 8.71124C12.1794 7.9967 13.2039 7.72162 14.178 7.62312Z" fill="#8CC84B"/>
</svg>
