<svg width="30" height="30" viewBox="0 0 25 26" fill="none" xmlns="http://www.w3.org/2000/svg">
<g clip-path="url(#clip0_42_167)">
<path d="M24.8978 14.2801C25.7726 7.34377 20.936 1.00238 14.0997 0.116358C7.26344 -0.769664 0.977077 4.12877 0.102235 11.0524C-0.772608 17.976 4.06402 24.3301 10.9003 25.2288C17.7491 26.1148 24.0104 21.2163 24.8978 14.2801Z" fill="#FF6C37"/>
<path d="M17.0117 8.14116L11.7376 13.4826L10.2504 11.9764C15.437 6.72352 15.9494 7.17919 17.0117 8.14116Z" fill="white"/>
<path d="M11.7376 13.6092C11.7001 13.6092 11.6751 13.5966 11.6502 13.5713L10.1504 12.065C10.1004 12.0144 10.1004 11.9384 10.1504 11.8878C15.4245 6.54637 15.9744 7.05267 17.0867 8.06527C17.1117 8.09058 17.1242 8.1159 17.1242 8.15387C17.1242 8.19184 17.1117 8.21716 17.0867 8.24247L11.8126 13.5713C11.8001 13.5966 11.7626 13.6092 11.7376 13.6092ZM10.4254 11.9764L11.7376 13.3055L16.8242 8.15387C15.8994 7.31848 15.2745 7.06533 10.4254 11.9764Z" fill="#FF6C37"/>
<path d="M13.2499 15.0142L11.8126 13.5586L17.0867 8.21716C18.4989 9.66011 16.3868 12.0017 13.2499 15.0142Z" fill="white"/>
<path d="M13.2499 15.1408C13.2124 15.1408 13.1874 15.1281 13.1624 15.1028L11.7251 13.6472C11.7001 13.6219 11.7001 13.5966 11.7001 13.5586C11.7001 13.5206 11.7126 13.4953 11.7376 13.47L17.0117 8.12855C17.0617 8.07792 17.1367 8.07792 17.1867 8.12855C17.5116 8.43233 17.6866 8.86268 17.6741 9.30569C17.6491 10.7107 16.0744 12.4954 13.3499 15.1028C13.3124 15.1281 13.2749 15.1408 13.2499 15.1408ZM11.9876 13.5586C12.7875 14.3813 13.1249 14.7104 13.2499 14.837C15.3495 12.8118 17.3866 10.736 17.3991 9.30569C17.4116 8.9766 17.2866 8.6475 17.0742 8.39436L11.9876 13.5586Z" fill="#FF6C37"/>
<path d="M10.2754 12.0143L11.3377 13.0902C11.3627 13.1155 11.3627 13.1408 11.3377 13.1661C11.3252 13.1788 11.3252 13.1788 11.3127 13.1788L9.11311 13.6598C9.00063 13.6724 8.90065 13.5965 8.87566 13.4826C8.86316 13.4193 8.88815 13.356 8.92565 13.318L10.2004 12.0269C10.2254 12.0016 10.2629 11.989 10.2754 12.0143Z" fill="white"/>
<path d="M9.07561 13.7864C8.88815 13.7864 8.75067 13.6345 8.75067 13.4446C8.75067 13.356 8.78816 13.2674 8.85065 13.2041L10.1254 11.9131C10.2004 11.8498 10.3004 11.8498 10.3754 11.9131L11.4377 12.989C11.5127 13.0522 11.5127 13.1662 11.4377 13.2421C11.4127 13.2674 11.3877 13.2801 11.3502 13.2927L9.1506 13.7737C9.1256 13.7737 9.10061 13.7864 9.07561 13.7864ZM10.2379 12.1536L9.01312 13.394C8.98813 13.4193 8.97563 13.4573 9.00063 13.4952C9.01312 13.5332 9.05062 13.5459 9.08811 13.5332L11.1502 13.0776L10.2379 12.1536Z" fill="#FF6C37"/>
<path d="M19.7987 5.17929C18.9988 4.39453 17.7116 4.41984 16.9367 5.24258C16.1618 6.06531 16.1868 7.35637 16.9992 8.14114C17.6616 8.78667 18.6614 8.90059 19.4487 8.4196L18.024 6.97665L19.7987 5.17929Z" fill="white"/>
<path d="M18.3989 8.83732C17.2117 8.83732 16.2493 7.8627 16.2493 6.66024C16.2493 5.45778 17.2117 4.48315 18.3989 4.48315C18.9488 4.48315 19.4862 4.69833 19.8862 5.09071C19.9112 5.11603 19.9237 5.14134 19.9237 5.17931C19.9237 5.21729 19.9112 5.2426 19.8862 5.26792L18.199 6.97667L19.5237 8.31837C19.5737 8.369 19.5737 8.44494 19.5237 8.49557C19.5112 8.50823 19.5112 8.50823 19.4987 8.52088C19.1738 8.7234 18.7864 8.83732 18.3989 8.83732ZM18.3989 4.74896C17.3491 4.74896 16.4993 5.60967 16.5118 6.6729C16.5118 7.73612 17.3616 8.59683 18.4114 8.58417C18.6989 8.58417 18.9863 8.52088 19.2488 8.38165L17.9365 7.06528C17.9115 7.03996 17.899 7.01465 17.899 6.97667C17.899 6.9387 17.9115 6.91339 17.9365 6.88807L19.6112 5.19197C19.2738 4.90085 18.8489 4.74896 18.3989 4.74896Z" fill="#FF6C37"/>
<path d="M19.8362 5.21733L19.8112 5.19202L18.024 6.97672L19.4362 8.40701C19.5737 8.31841 19.7112 8.21715 19.8237 8.10323C20.6235 7.30581 20.6235 6.01475 19.8362 5.21733Z" fill="white"/>
<path d="M19.4488 8.54619C19.4113 8.54619 19.3863 8.53354 19.3613 8.50822L17.9365 7.06527C17.9115 7.03996 17.899 7.01464 17.899 6.97667C17.899 6.9387 17.9115 6.91338 17.9365 6.88807L19.7112 5.09071C19.7612 5.04008 19.8362 5.04008 19.8862 5.09071L19.9237 5.11602C20.761 5.96407 20.761 7.33108 19.9362 8.19179C19.8112 8.31836 19.6737 8.43228 19.5237 8.52088C19.4862 8.53354 19.4613 8.54619 19.4488 8.54619ZM18.199 6.97667L19.4613 8.25507C19.5612 8.19179 19.6612 8.10318 19.7362 8.02724C20.4486 7.30576 20.4861 6.12862 19.7987 5.36917L18.199 6.97667Z" fill="#FF6C37"/>
<path d="M17.2242 8.36895C16.9242 8.06517 16.4368 8.06517 16.1369 8.36895L11.4252 13.1408L12.2126 13.9382L17.1992 9.50812C17.5241 9.22966 17.5491 8.73601 17.2741 8.40692C17.2492 8.39426 17.2367 8.38161 17.2242 8.36895Z" fill="white"/>
<path d="M12.2001 14.0648C12.1626 14.0648 12.1376 14.0521 12.1126 14.0268L11.3252 13.2294C11.2752 13.1788 11.2752 13.1028 11.3252 13.0522L16.0369 8.28033C16.3868 7.92592 16.9492 7.92592 17.2991 8.28033C17.6491 8.63474 17.6491 9.20433 17.2991 9.55874C17.2866 9.57139 17.2741 9.58405 17.2616 9.59671L12.275 14.0268C12.2625 14.0521 12.2375 14.0648 12.2001 14.0648ZM11.6002 13.1408L12.2126 13.761L17.1117 9.40685C17.3866 9.17901 17.4116 8.76132 17.1867 8.48285C16.9617 8.20439 16.5493 8.17907 16.2743 8.40691C16.2618 8.41956 16.2493 8.43222 16.2243 8.44488L11.6002 13.1408Z" fill="#FF6C37"/>
<path d="M7.81335 18.5709C7.76336 18.5963 7.73837 18.6469 7.75087 18.6975L7.96333 19.6089C8.01332 19.7354 7.93833 19.8873 7.80086 19.9253C7.70087 19.9633 7.58839 19.9253 7.52591 19.8494L6.15115 18.4697L10.6378 13.9257L12.1876 13.951L13.2374 15.0142C12.9874 15.2294 11.4752 16.7103 7.81335 18.5709Z" fill="white"/>
<path d="M7.71336 20.0519C7.61338 20.0519 7.5134 20.0139 7.45091 19.9379L6.08866 18.5583C6.06366 18.533 6.05116 18.5076 6.05116 18.4697C6.05116 18.4317 6.06366 18.4064 6.08866 18.3811L10.5753 13.837C10.6003 13.8117 10.6378 13.7991 10.6628 13.7991L12.2126 13.8244C12.25 13.8244 12.275 13.837 12.3 13.8624L13.3498 14.9256C13.3748 14.9509 13.3873 14.9889 13.3873 15.0268C13.3873 15.0648 13.3748 15.0901 13.3373 15.1154L13.2499 15.1914C11.9251 16.3685 10.1254 17.5457 7.88833 18.6722L8.10079 19.5709C8.13829 19.7354 8.0633 19.9126 7.91333 20.0012C7.83834 20.0392 7.77585 20.0519 7.71336 20.0519ZM6.33861 18.4697L7.62588 19.7607C7.66337 19.824 7.73836 19.8493 7.80085 19.8114C7.86334 19.7734 7.88833 19.6974 7.85084 19.6342L7.63838 18.7228C7.61338 18.6089 7.66337 18.5076 7.76335 18.457C9.97546 17.3305 11.7626 16.166 13.0749 15.0142L12.1501 14.0775L10.7128 14.0522L6.33861 18.4697Z" fill="#FF6C37"/>
<path d="M5.08884 19.5581L6.16365 18.4696L7.76336 20.0898L5.21382 19.9126C5.10134 19.8999 5.02635 19.7986 5.03885 19.6847C5.03885 19.6341 5.05135 19.5835 5.08884 19.5581Z" fill="white"/>
<path d="M7.76336 20.2037L5.20132 20.0265C5.01385 20.0139 4.88887 19.8493 4.90137 19.6595C4.91387 19.5835 4.93887 19.5076 5.00135 19.457L6.07616 18.3684C6.12615 18.3178 6.20114 18.3178 6.25113 18.3684L7.85084 19.9886C7.88833 20.0265 7.90083 20.0772 7.87584 20.1278C7.85084 20.1784 7.81335 20.2037 7.76336 20.2037ZM6.16364 18.6469L5.17632 19.6468C5.13883 19.6721 5.13883 19.7354 5.17632 19.7607C5.18882 19.7734 5.20132 19.7861 5.22631 19.7861L7.43841 19.9379L6.16364 18.6469Z" fill="#FF6C37"/>
<path d="M10.2004 14.5079C10.1254 14.5079 10.0754 14.4446 10.0754 14.3813C10.0754 14.3434 10.0879 14.318 10.1129 14.2927L11.3252 13.0649C11.3752 13.0143 11.4502 13.0143 11.5002 13.0649L12.2875 13.8624C12.325 13.9003 12.3375 13.9383 12.325 13.9889C12.3125 14.0269 12.275 14.0649 12.2251 14.0775L10.2254 14.5079C10.2129 14.5079 10.2004 14.5079 10.2004 14.5079ZM11.4127 13.3308L10.5878 14.1661L11.9376 13.875L11.4127 13.3308Z" fill="#FF6C37"/>
<path d="M12.1876 13.9509L10.8128 14.2547C10.7128 14.28 10.6128 14.2167 10.5879 14.1154C10.5754 14.0522 10.5879 13.9889 10.6378 13.9382L11.4002 13.1661L12.1876 13.9509Z" fill="white"/>
<path d="M10.7878 14.3813C10.6128 14.3813 10.4754 14.2421 10.4754 14.0649C10.4754 13.9763 10.5129 13.9003 10.5629 13.8371L11.3252 13.0649C11.3752 13.0143 11.4502 13.0143 11.5002 13.0649L12.2875 13.8624C12.325 13.9003 12.3375 13.9383 12.325 13.9889C12.3125 14.0269 12.275 14.0649 12.2251 14.0775L10.8503 14.3813C10.8253 14.3813 10.8003 14.3813 10.7878 14.3813ZM11.4127 13.3308L10.7378 14.0143C10.7128 14.0396 10.7128 14.0649 10.7253 14.0902C10.7378 14.1155 10.7628 14.1282 10.8003 14.1282L11.9501 13.875L11.4127 13.3308Z" fill="#FF6C37"/>
<path d="M19.8487 6.43235C19.8237 6.35641 19.7362 6.31843 19.6612 6.34375C19.5862 6.36906 19.5487 6.45766 19.5737 6.53361C19.5737 6.54627 19.5862 6.55892 19.5862 6.57158C19.6612 6.72347 19.6362 6.91333 19.5362 7.05257C19.4862 7.11585 19.4987 7.20446 19.5487 7.25509C19.6112 7.30571 19.6987 7.29306 19.7487 7.22977C19.9362 6.98928 19.9737 6.6855 19.8487 6.43235Z" fill="#FF6C37"/>
</g>
<defs>
<clipPath id="clip0_42_167">
<rect width="25" height="25.3195" fill="white" transform="translate(0 0.0128174)"/>
</clipPath>
</defs>
</svg>
