<svg width="30" height="30" viewBox="0 0 25 25" fill="none" xmlns="http://www.w3.org/2000/svg">
<path d="M17.0209 16.8406C17.8859 16.7525 18.542 16.0195 18.5122 15.1397C18.4824 14.2601 17.7367 13.5564 16.842 13.5564H16.7823C15.8577 13.5857 15.142 14.3481 15.1718 15.2571C15.2016 15.6969 15.3805 16.0781 15.649 16.342C14.6349 18.3067 13.084 19.7435 10.7577 20.9457C9.17687 21.7668 7.53656 22.06 5.89621 21.8548C4.55405 21.6789 3.51016 21.0925 2.85391 20.1247C1.89956 18.6879 1.81012 17.1337 2.61541 15.5797C3.18212 14.4654 4.07678 13.6443 4.64349 13.2337C4.5242 12.8525 4.34521 12.2075 4.25576 11.7383C-0.0689104 14.8172 0.378508 18.9811 1.69083 20.9457C2.67501 22.4119 4.67333 23.321 6.8804 23.321C7.47687 23.321 8.07336 23.2622 8.66992 23.1157C12.4876 22.3826 15.3806 20.154 17.0209 16.8406ZM22.2702 13.2045C20.0035 10.5947 16.663 9.15794 12.8454 9.15794H12.3683C12.0998 8.63012 11.5331 8.27817 10.9068 8.27817H10.8471C9.92258 8.30754 9.20687 9.06989 9.23664 9.97895C9.26648 10.8586 10.012 11.5624 10.9068 11.5624H10.9664C11.6226 11.5331 12.1893 11.1225 12.4279 10.5654H12.9647C15.2315 10.5654 17.3788 11.2104 19.3176 12.4714C20.8088 13.439 21.8825 14.7 22.479 16.2247C22.986 17.4563 22.9562 18.6586 22.4193 19.6849C21.5842 21.239 20.1825 22.0893 18.3333 22.0893C17.1402 22.0893 16.007 21.7375 15.4104 21.4736C15.0823 21.7668 14.4858 22.2359 14.0682 22.5293C15.3508 23.1157 16.663 23.4382 17.9157 23.4382C20.7789 23.4382 22.8966 21.884 23.7019 20.33C24.5667 18.6292 24.507 15.6969 22.2702 13.2045ZM7.11898 17.339C7.14884 18.2186 7.89445 18.9223 8.78922 18.9223H8.84891C9.77344 18.8931 10.4892 18.1307 10.4594 17.2217C10.4296 16.3419 9.68391 15.6382 8.78922 15.6382H8.72961C8.66992 15.6382 8.58039 15.6382 8.52086 15.6675C7.29797 13.6736 6.79095 11.5037 6.96994 9.15786C7.08914 7.39845 7.68569 5.87362 8.72961 4.6127C9.59445 3.52774 11.2647 2.99994 12.3981 2.97069C15.5595 2.912 16.9016 6.78262 16.9911 8.33676C17.3788 8.42473 18.035 8.63004 18.4824 8.77668C18.1245 4.02639 15.142 1.56323 12.2788 1.56323C9.59445 1.56323 7.11898 3.46924 6.1347 6.28424C4.76279 10.0375 5.65753 13.6443 7.32773 16.4886C7.17868 16.6939 7.08914 17.0164 7.11898 17.339Z" fill="#764ABC"/>
</svg>
