<svg width="45" height="45" viewBox="0 0 45 45" fill="none" xmlns="http://www.w3.org/2000/svg">
<path d="M36.3364 14.3457V30.5509L22.5664 38.6977L22.4419 38.8109V44.8675L22.5664 44.9849L41.9595 33.783V11.2021L41.7763 11.1572L36.3089 14.2139L36.3364 14.3457Z" fill="#2F406A"/>
<path d="M8.7522 30.6836L22.5664 38.6977V44.9849L3.04054 33.7387V11.2463L3.24091 11.2161L8.69245 14.3855L8.7522 14.567V30.6836Z" fill="#2379BD"/>
<path d="M8.7522 14.5669L3.04054 11.2462L22.5222 0L41.9595 11.202L36.3364 14.3456L22.5222 6.46434L8.7522 14.5669Z" fill="#03AFEF"/>
<path d="M22.3294 28.8301L22.1798 28.6775V22.5924L22.3294 22.5152L22.3658 22.3651L27.5826 19.322L27.7422 19.3577V25.6276L22.3294 28.8301Z" fill="#2F406A"/>
<path d="M16.8264 25.8231V19.3129L16.9776 19.3054L22.2843 22.3937L22.3294 22.5153V28.8302L16.8264 25.8231Z" fill="#2379BD"/>
<path d="M22.2391 16.1101L16.8264 19.3127L22.3294 22.5152L27.7422 19.3577L22.2391 16.1101Z" fill="#03AFEF"/>
<path d="M15.5934 32.7996L15.444 32.6469V26.5618L15.5934 26.4847L15.6299 26.3346L20.8466 23.2915L21.0062 23.3272V29.597L15.5934 32.7996Z" fill="#2F406A"/>
<path d="M10.0905 29.7925V23.2821L10.2416 23.2747L15.5483 26.3631L15.5934 26.4847V32.7996L10.0905 29.7925Z" fill="#2379BD"/>
<path d="M15.5033 20.0796L10.0905 23.282L15.5934 26.4846L21.0062 23.3272L15.5033 20.0796Z" fill="#03AFEF"/>
<path d="M29.5465 32.95L29.3969 32.7973V26.7121L29.5465 26.6351L29.5828 26.485L34.7996 23.4419L34.9592 23.4776V29.7474L29.5465 32.95Z" fill="#2F406A"/>
<path d="M24.0434 29.9429V23.4325L24.1946 23.425L29.5013 26.5135L29.5465 26.6351V32.95L24.0434 29.9429Z" fill="#2379BD"/>
<path d="M29.4562 20.23L24.0434 23.4324L29.5465 26.635L34.9592 23.4776L29.4562 20.23Z" fill="#03AFEF"/>
<path d="M22.8104 36.9192L22.661 36.7666V30.6814L22.8104 30.6043L22.8469 30.4541L28.0637 27.4111L28.2232 27.4469V33.7166L22.8104 36.9192Z" fill="#2F406A"/>
<path d="M17.3075 33.9121V27.4017L17.4586 27.3943L22.7654 30.4826L22.8104 30.6043V36.9192L17.3075 33.9121Z" fill="#2379BD"/>
<path d="M22.7203 24.1992L17.3075 27.4018L22.8104 30.6044L28.2232 27.447L22.7203 24.1992Z" fill="#03AFEF"/>
<path d="M22.3294 20.1997L22.1798 20.0469V13.9619L22.3294 13.8848L22.3658 13.7346L27.5826 10.6917L27.7422 10.7274V16.9971L22.3294 20.1997Z" fill="#2F406A"/>
<path d="M16.8264 17.1927V10.6823L16.9776 10.6748L22.2843 13.7631L22.3294 13.8849V20.1998L16.8264 17.1927Z" fill="#2379BD"/>
<path d="M22.2391 7.47974L16.8264 10.6823L22.3294 13.8849L27.7422 10.7275L22.2391 7.47974Z" fill="#03AFEF"/>
<path d="M15.5934 24.1692L15.444 24.0166V17.9315L15.5934 17.8543L15.6299 17.7043L20.8466 14.6611L21.0062 14.6969V20.9668L15.5934 24.1692Z" fill="#2F406A"/>
<path d="M10.0905 21.162V14.6517L10.2416 14.6443L15.5483 17.7326L15.5934 17.8542V24.1691L10.0905 21.162Z" fill="#2379BD"/>
<path d="M15.5033 11.4492L10.0905 14.6518L15.5934 17.8543L21.0062 14.6968L15.5033 11.4492Z" fill="#03AFEF"/>
<path d="M29.5465 24.3194L29.3969 24.1667V18.0817L29.5465 18.0045L29.5828 17.8544L34.7996 14.8113L34.9592 14.847V21.1169L29.5465 24.3194Z" fill="#2F406A"/>
<path d="M24.0434 21.3124V14.8021L24.1946 14.7947L29.5013 17.883L29.5465 18.0046V24.3195L24.0434 21.3124Z" fill="#2379BD"/>
<path d="M29.4562 11.5996L24.0434 14.8022L29.5465 18.0047L34.9592 14.8472L29.4562 11.5996Z" fill="#03AFEF"/>
<path d="M22.8104 28.2888L22.661 28.1362V22.051L22.8104 21.9739L22.8469 21.8239L28.0637 18.7808L28.2232 18.8165V25.0862L22.8104 28.2888Z" fill="#2F406A"/>
<path d="M17.3075 25.2818V18.7714L17.4586 18.7639L22.7654 21.8523L22.8104 21.974V28.2889L17.3075 25.2818Z" fill="#2379BD"/>
<path d="M22.7203 15.5688L17.3075 18.7714L22.8104 21.974L28.2232 18.8166L22.7203 15.5688Z" fill="#03AFEF"/>
</svg>
