<svg width="30" height="30" viewBox="0 0 25 25" fill="none" xmlns="http://www.w3.org/2000/svg">
<path d="M1.75694 11.3518C1.75694 11.0809 1.97917 10.9768 2.34722 10.9768C2.875 10.9768 3.54167 11.1365 4.06944 11.4212V9.78928C3.49306 9.56011 2.92361 9.46984 2.34722 9.46984C0.9375 9.46984 0 10.2059 0 11.4351C0 13.3518 2.63889 13.0462 2.63889 13.8726C2.63889 14.1921 2.36111 14.2962 1.97222 14.2962C1.39583 14.2962 0.659722 14.0601 0.0763889 13.7407V15.3934C0.722222 15.6712 1.375 15.7893 1.97222 15.7893C3.41667 15.7893 4.40972 15.074 4.40972 13.8309C4.40278 11.7615 1.75694 12.1296 1.75694 11.3518ZM6.45139 8.08095L4.75694 8.44206L4.75 14.0046C4.75 15.0323 5.52083 15.7893 6.54861 15.7893C7.11806 15.7893 7.53472 15.6851 7.76389 15.5601V14.1504C7.54167 14.2407 6.44444 14.5601 6.44444 13.5323V11.0671H7.76389V9.58789H6.44444L6.45139 8.08095ZM9.92361 10.1018L9.8125 9.58789H8.3125V15.6643H10.0486V11.5462C10.4583 11.0115 11.1528 11.1087 11.3681 11.1851V9.58789C11.1458 9.50456 10.3333 9.35178 9.92361 10.1018ZM11.7917 9.58789H13.5347V15.6643H11.7917V9.58789ZM11.7917 9.06011L13.5347 8.68511V7.27539L11.7917 7.64345V9.06011ZM17.1597 9.46984C16.4792 9.46984 16.0417 9.78928 15.7986 10.0115L15.7083 9.58095H14.1806V17.6782L15.9167 17.3101L15.9236 15.3448C16.1736 15.5254 16.5417 15.7823 17.1528 15.7823C18.3958 15.7823 19.5278 14.7823 19.5278 12.5809C19.5208 10.5671 18.375 9.46984 17.1597 9.46984ZM16.7431 14.2546C16.3333 14.2546 16.0903 14.1087 15.9236 13.9282L15.9167 11.3518C16.0972 11.1504 16.3472 11.0115 16.7431 11.0115C17.375 11.0115 17.8125 11.7198 17.8125 12.6296C17.8125 13.5601 17.3819 14.2546 16.7431 14.2546ZM25 12.6504C25 10.8726 24.1389 9.46984 22.4931 9.46984C20.8403 9.46984 19.8403 10.8726 19.8403 12.6365C19.8403 14.7268 21.0208 15.7823 22.7153 15.7823C23.5417 15.7823 24.1667 15.5948 24.6389 15.3309V13.9421C24.1667 14.1782 23.625 14.324 22.9375 14.324C22.2639 14.324 21.6667 14.0879 21.5903 13.2684H24.9861C24.9861 13.1782 25 12.8171 25 12.6504ZM21.5694 11.9907C21.5694 11.2059 22.0486 10.8796 22.4861 10.8796C22.9097 10.8796 23.3611 11.2059 23.3611 11.9907H21.5694Z" fill="#6772E5"/>
</svg>
