<svg width="30" height="30" viewBox="0 0 25 25" fill="none" xmlns="http://www.w3.org/2000/svg">
<path d="M7.03125 10.7031C7.76042 7.78646 9.58333 6.32812 12.5 6.32812C16.875 6.32812 17.4219 9.60937 19.6094 10.1562C21.0677 10.5208 22.3438 9.97396 23.4375 8.51562C22.7083 11.4323 20.8854 12.8906 17.9688 12.8906C13.5938 12.8906 13.0469 9.60938 10.8594 9.0625C9.40104 8.69792 8.125 9.24479 7.03125 10.7031ZM1.5625 17.2656C2.29167 14.349 4.11458 12.8906 7.03125 12.8906C11.4062 12.8906 11.9531 16.1719 14.1406 16.7187C15.599 17.0833 16.875 16.5365 17.9688 15.0781C17.2396 17.9948 15.4167 19.4531 12.5 19.4531C8.125 19.4531 7.57812 16.1719 5.39062 15.625C3.93229 15.2604 2.65625 15.8073 1.5625 17.2656Z" fill="#44A8B3"/>
</svg>
