<svg width="30" height="30" viewBox="0 0 25 26" fill="none" xmlns="http://www.w3.org/2000/svg">
<g clip-path="url(#clip0_42_193)">
<path d="M0 12.6725V25.3323H12.5H25V12.6725V0.0127869H12.5H0V12.6725Z" fill="#007ACC"/>
<path d="M5.52843 12.7565L5.52049 13.7934H7.14748L8.77446 13.7934V18.4755V23.1576H9.92525H11.076V18.4755L11.076 13.7934H12.703H14.33V12.7766C14.33 12.2139 14.3181 11.7437 14.3022 11.7317C14.2903 11.7156 12.3102 11.7076 9.90938 11.7116L5.54033 11.7236L5.52843 12.7565Z" fill="white"/>
<path d="M20.1725 11.6943C20.8074 11.855 21.2916 12.1404 21.736 12.6066C21.9662 12.8558 22.3074 13.3099 22.3352 13.4184C22.3432 13.4506 21.2559 14.1901 20.5971 14.604C20.5733 14.6201 20.4781 14.5156 20.3709 14.3548C20.0495 13.8806 19.7122 13.6756 19.1963 13.6395C18.4384 13.5872 17.9503 13.9891 17.9543 14.6603C17.9543 14.8572 17.982 14.9738 18.0614 15.1345C18.2281 15.4842 18.5376 15.6932 19.5098 16.1192C21.2995 16.8988 22.0654 17.4133 22.5416 18.1447C23.0733 18.9606 23.1924 20.2627 22.8312 21.2313C22.4344 22.2843 21.4503 22.9996 20.0654 23.2368C19.6368 23.3131 18.6209 23.3011 18.1606 23.2167C17.1566 23.0358 16.2043 22.5334 15.617 21.8743C15.3868 21.6171 14.9384 20.9459 14.9662 20.8977C14.9781 20.8816 15.0812 20.8173 15.1963 20.749C15.3074 20.6847 15.7281 20.4396 16.1249 20.2065L16.8432 19.7845L16.9939 20.0095C17.2043 20.3351 17.6646 20.7812 17.9424 20.9299C18.74 21.3559 19.8352 21.2956 20.3749 20.8053C20.6051 20.5923 20.7003 20.3712 20.7003 20.0457C20.7003 19.7523 20.6646 19.6237 20.5138 19.4027C20.3193 19.1213 19.9225 18.8842 18.7955 18.3899C17.5059 17.8272 16.9503 17.4776 16.4424 16.923C16.1487 16.6014 15.8709 16.087 15.7559 15.657C15.6606 15.2993 15.6368 14.4031 15.7122 14.0414C15.9781 12.7794 16.9185 11.8993 18.2757 11.638C18.7162 11.5536 19.74 11.5858 20.1725 11.6943Z" fill="white"/>
</g>
<defs>
<clipPath id="clip0_42_193">
<rect width="25" height="25.3195" fill="white" transform="translate(0 0.0128174)"/>
</clipPath>
</defs>
</svg>
