<svg width="45" height="45" viewBox="0 0 45 45" fill="none" xmlns="http://www.w3.org/2000/svg">
<path d="M40.7953 7.07337L32.6869 3.16962C32.229 2.94883 31.7137 2.87597 31.2125 2.96114C30.7114 3.0463 30.2491 3.28528 29.8898 3.64493L3.34687 27.8437C3.02483 28.1359 2.83205 28.5441 2.81095 28.9784C2.78986 29.4128 2.94216 29.8377 3.23437 30.1598C3.26953 30.1977 3.30468 30.2343 3.34265 30.2681L5.50968 32.2368C5.79285 32.4945 6.15734 32.6449 6.53985 32.6619C6.92236 32.6788 7.29873 32.5613 7.60359 32.3296L39.5747 8.08587C39.8162 7.90262 40.104 7.79042 40.4058 7.76189C40.7076 7.73336 41.0114 7.78964 41.2829 7.92439C41.5545 8.05914 41.783 8.26701 41.9428 8.5246C42.1026 8.7822 42.1874 9.07929 42.1875 9.38243V9.28821C42.1875 8.82541 42.0568 8.37203 41.8105 7.98021C41.5642 7.58839 41.2123 7.27405 40.7953 7.07337Z" fill="#0065A9"/>
<path d="M40.7953 37.9266L32.6869 41.8317C32.2288 42.0519 31.7137 42.1244 31.2127 42.0393C30.7117 41.9541 30.2494 41.7155 29.8898 41.3564L3.34687 17.1563C3.02483 16.8641 2.83205 16.4559 2.81095 16.0215C2.78986 15.5872 2.94216 15.1622 3.23437 14.8402C3.26953 14.8022 3.30468 14.7656 3.34265 14.7319L5.50968 12.7631C5.79314 12.5043 6.15846 12.3533 6.54192 12.3363C6.92537 12.3194 7.30261 12.4376 7.60781 12.6703L39.5747 36.9141C39.8162 37.0973 40.104 37.2095 40.4058 37.2381C40.7076 37.2666 41.0114 37.2103 41.2829 37.0756C41.5545 36.9408 41.783 36.7329 41.9428 36.4753C42.1026 36.2177 42.1874 35.9207 42.1875 35.6175V35.7188C42.186 36.1803 42.0546 36.6322 41.8084 37.0226C41.5622 37.413 41.2112 37.7263 40.7953 37.9266Z" fill="#007ACC"/>
<path d="M32.6869 41.8318C32.2288 42.0519 31.7137 42.1244 31.2127 42.0393C30.7117 41.9542 30.2494 41.7156 29.8898 41.3565C30.0918 41.5558 30.3481 41.691 30.6266 41.7453C30.905 41.7996 31.1934 41.7705 31.4554 41.6616C31.7174 41.5528 31.9415 41.369 32.0995 41.1334C32.2575 40.8977 32.3425 40.6207 32.3437 40.3369V4.66317C32.344 4.37811 32.2596 4.09939 32.1013 3.86232C31.943 3.62525 31.7179 3.4405 31.4545 3.33147C31.1911 3.22244 30.9013 3.19404 30.6218 3.24986C30.3422 3.30568 30.0855 3.44322 29.8842 3.64505C30.2435 3.28553 30.7057 3.04654 31.2068 2.96114C31.7079 2.87573 32.2231 2.94813 32.6812 3.16833L40.7883 7.06645C41.2066 7.26614 41.56 7.58004 41.8075 7.97194C42.0551 8.36383 42.1868 8.81775 42.1875 9.2813V35.7188C42.1876 36.182 42.0569 36.6358 41.8103 37.0279C41.5637 37.42 41.2114 37.7345 40.7939 37.935L32.6869 41.8318Z" fill="#1F9CF0"/>
</svg>
